#!OML:ASF H:\BabyWalks\Project 1\Capture day 1\Session 1\baby.ASF
:FULLY-SPECIFIED
:DEGREES
821
root 25.9106 17.3605 0.984197 340.48 87.7867 336.437
lowerback 21.8381 -1.68422 -3.5998
upperback 6.09142 -2.48577 0.986933
thorax -5.31309 -1.03132 3.73963
lowerneck -0.270298 1.91453 8.63525
upperneck -9.70216 2.23544 -8.56301
head -2.61631 1.16644 -4.06291
rclavicle -6.95746e-015 -7.15625e-015
rhumerus -55.3696 8.32029 -75.9607
rradius 45.9444
rwrist 0.114889
rhand -11.5527 -20.491
rfingers 7.12502
rthumb 14.488 -49.9652
lclavicle -6.95746e-015 -7.15625e-015
lhumerus -38.0598 -8.22476 76.394
lradius 76.1915
lwrist 3.29119
lhand -10.5354 3.10082
lfingers 7.12502
lthumb 15.468 32.502
rfemur -30.3111 13.5224 13.2482
rtibia 32.5191
rfoot -15.7196 -2.49113
rtoes -15.3722
lfemur -8.73501 -3.94724 -13.9648
ltibia 44.8375
lfoot -21.6995 -21.3333
ltoes -7.76851
822
root 26.1163 17.3368 1.0324 341.058 88.6425 337.457
lowerback 21.7008 -1.77324 -3.53175
upperback 6.07877 -2.56565 1.20384
thorax -5.24156 -1.07229 3.94976
lowerneck -0.403336 1.79017 8.97473
upperneck -9.03158 2.01573 -9.52053
head -2.39375 1.07006 -4.39939
rclavicle -3.27001e-014 2.14687e-014
rhumerus -55.6142 8.21181 -75.5655
rradius 46.021
rwrist -0.192863
rhand -11.5126 -20.5093
rfingers 7.12502
rthumb 14.5267 -49.9807
lclavicle -3.27001e-014 2.14687e-014
lhumerus -38.489 -8.22696 76.6647
lradius 75.7369
lwrist 3.32074
lhand -10.1358 3.35165
lfingers 7.12502
lthumb 15.8529 32.7227
rfemur -29.4328 13.2475 13.1581
rtibia 33.0139
rfoot -15.0057 -1.8946
rtoes -14.2229
lfemur -9.11165 -3.64196 -13.8003
ltibia 46.8634
lfoot -19.2582 -23.5313
ltoes -7.7876
823
root 26.3196 17.3081 1.08258 342.287 89.5576 339.152
lowerback 21.584 -1.86311 -3.46987
upperback 6.07623 -2.64738 1.41702
thorax -5.16861 -1.11363 4.15999
lowerneck -0.502187 1.65424 9.28413
upperneck -8.42863 1.79442 -10.4406
head -2.20153 0.971468 -4.72305
rclavicle -1.29707e-014 5.00937e-014
rhumerus -55.8355 8.09018 -75.2004
rradius 46.0879
rwrist -0.457195
rhand -11.4491 -20.5121
rfingers 7.12502
rthumb 14.5878 -49.9791
lclavicle -1.29707e-014 5.00937e-014
lhumerus -38.9381 -8.28954 76.926
lradius 75.194
lwrist 3.12712
lhand -9.76654 3.55366
lfingers 7.12502
lthumb 16.2085 32.8961
rfemur -28.55 12.8715 13.128
rtibia 33.7848
rfoot -14.3616 -1.28222
rtoes -12.7049
lfemur -9.64805 -3.46507 -13.6153
ltibia 49.0819
lfoot -16.7708 -25.435
ltoes -7.82025
824
root 26.5202 17.2751 1.13392 342.545 90.4966 339.909
lowerback 21.4906 -1.95092 -3.39016
upperback 6.09047 -2.72104 1.63334
thorax -5.0905 -1.15065 4.36165
lowerneck -0.532519 1.50288 9.5606
upperneck -7.93782 1.56449 -11.3175
head -2.05897 0.869218 -5.03239
rclavicle 7.65321e-015 -7.70291e-015
rhumerus -56.0205 7.9449 -74.8546
rradius 46.1426
rwrist -0.653304
rhand -11.3542 -20.4892
rfingers 7.12502
rthumb 14.6793 -49.9495
lclavicle 7.65321e-015 -7.70291e-015
lhumerus -39.4138 -8.39136 77.1847
lradius 74.5798
lwrist 2.75698
lhand -9.44152 3.69039
lfingers 7.12502
lthumb 16.5214 33.007
rfemur -27.6695 12.4346 13.1774
rtibia 34.7902
rfoot -13.981 -0.70972
rtoes -11.0199
lfemur -10.3073 -3.41484 -13.397
ltibia 51.4498
lfoot -14.4843 -26.9822
ltoes -7.90132
825
root 26.7184 17.2386 1.18529 344.905 91.4217 342.812
lowerback 21.4268 -2.03343 -3.25141
upperback 6.12826 -2.77268 1.86031
thorax -5.00649 -1.17644 4.53611
lowerneck -0.468349 1.33284 9.80449
upperneck -7.593 1.31859 -12.143
head -1.98098 0.761796 -5.32514
rclavicle -8.49804e-015 2.92213e-014
rhumerus -56.1574 7.76641 -74.5189
rradius 46.1806
rwrist -0.777257
rhand -11.233 -20.4354
rfingers 7.12502
rthumb 14.7961 -49.8872
lclavicle -8.49804e-015 2.92213e-014
lhumerus -39.9151 -8.51224 77.4435
lradius 73.8993
lwrist 2.25524
lhand -9.13871 3.75352
lfingers 7.12502
lthumb 16.8129 33.0456
rfemur -26.7731 11.9699 13.3433
rtibia 35.9586
rfoot -13.9493 -0.35413
rtoes -9.50131
lfemur -11.0509 -3.46657 -13.1168
ltibia 53.9282
lfoot -12.6257 -28.189
ltoes -8.07596
826
root 26.9144 17.1987 1.23551 347.92 92.286 346.421
lowerback 21.3954 -2.10851 -3.01015
upperback 6.1972 -2.7888 2.11069
thorax -4.91311 -1.18428 4.66909
lowerneck -0.301814 1.14376 10.0172
upperneck -7.41414 1.05208 -12.9084
head -1.97516 0.648606 -5.59842
rclavicle 6.85807e-015 -1.47101e-014
rhumerus -56.2231 7.54972 -74.1813
rradius 46.1918
rwrist -0.815513
rhand -11.0846 -20.3482
rfingers 7.12502
rthumb 14.939 -49.7895
lclavicle 6.85807e-015 -1.47101e-014
lhumerus -40.4463 -8.62761 77.7094
lradius 73.1601
lwrist 1.71051
lhand -8.88713 3.76413
lfingers 7.12502
lthumb 17.0551 33.0355
rfemur -25.8351 11.5303 13.6745
rtibia 37.1974
rfoot -14.3022 -0.267494
rtoes -8.32857
lfemur -11.8419 -3.56819 -12.7263
ltibia 56.4779
lfoot -11.3243 -29.0978
ltoes -8.3351
827
root 27.1088 17.1564 1.28323 352.109 93.0522 351.256
lowerback 21.3932 -2.17463 -2.61652
upperback 6.30381 -2.75522 2.39818
thorax -4.80531 -1.16683 4.74317
lowerneck -0.0477716 0.938776 10.203
upperneck -7.396 0.764673 -13.6126
head -2.03736 0.530269 -5.85175
rclavicle 4.37326e-015 -2.06736e-014
rhumerus -56.1909 7.30031 -73.8341
rradius 46.1589
rwrist -0.768595
rhand -10.9335 -20.2316
rfingers 7.12502
rthumb 15.0845 -49.6619
lclavicle 4.37326e-015 -2.06736e-014
lhumerus -41.0059 -8.71525 77.9851
lradius 72.3828
lwrist 1.16853
lhand -8.66721 3.78817
lfingers 7.12502
lthumb 17.2668 33.0411
rfemur -24.8257 11.1518 14.228
rtibia 38.4024
rfoot -14.9744 -0.43237
rtoes -7.59414
lfemur -12.6508 -3.65504 -12.1678
ltibia 59.0557
lfoot -10.6122 -29.7654
ltoes -8.67745
828
root 27.3019 17.1126 1.32752 357.76 93.7043 357.598
lowerback 21.4177 -2.23315 -2.03644
upperback 6.44781 -2.66533 2.73518
thorax -4.68325 -1.11996 4.75053
lowerneck 0.258724 0.730892 10.3648
upperneck -7.50837 0.470877 -14.2472
head -2.15099 0.413034 -6.08183
rclavicle 1.15295e-014 4.37326e-015
rhumerus -56.0351 7.03258 -73.4766
rradius 46.0631
rwrist -0.632495
rhand -10.8038 -20.0905
rfingers 7.12502
rthumb 15.2095 -49.5115
lclavicle 1.15295e-014 4.37326e-015
lhumerus -41.5975 -8.74631 78.2649
lradius 71.5779
lwrist 0.662523
lhand -8.46489 3.8905
lfingers 7.12502
lthumb 17.4615 33.1262
rfemur -23.7269 10.8612 15.0521
rtibia 39.4847
rfoot -15.8647 -0.807846
rtoes -7.22378
lfemur -13.4617 -3.65909 -11.3851
ltibia 61.6146
lfoot -10.4391 -30.2643
ltoes -9.09338
829
root 27.4946 17.0685 1.3672 364.606 94.2554 365.163
lowerback 21.4556 -2.28183 -1.27548
upperback 6.62509 -2.51783 3.11872
thorax -4.54309 -1.04207 4.69032
lowerneck 0.574389 0.527573 10.5057
upperneck -7.70718 0.178982 -14.8148
head -2.29445 0.299178 -6.28881
rclavicle 4.37326e-015 1.35174e-014
rhumerus -55.7371 6.75569 -73.1045
rradius 45.8869
rwrist -0.399156
rhand -10.7009 -19.9383
rfingers 7.12502
rthumb 15.3086 -49.3518
lclavicle 4.37326e-015 1.35174e-014
lhumerus -42.2156 -8.70124 78.5412
lradius 70.7452
lwrist 0.192138
lhand -8.24693 4.12162
lfingers 7.12502
lthumb 17.6712 33.3386
rfemur -22.54 10.67 16.1341
rtibia 40.3965
rfoot -16.9056 -1.31113
rtoes -7.5023
lfemur -14.263 -3.52623 -10.383
ltibia 64.105
lfoot -10.6954 -30.6502
ltoes -9.56565
830
root 27.6861 17.0246 1.40222 371.981 94.7494 373.238
lowerback 21.489 -2.31854 -0.398411
upperback 6.8165 -2.32654 3.53375
thorax -4.39058 -0.939371 4.58659
lowerneck 0.851521 0.340921 10.6268
upperneck -7.93068 -0.0936917 -15.3119
head -2.43895 0.194081 -6.47055
rclavicle 4.73108e-014 7.95139e-015
rhumerus -55.2895 6.48235 -72.7214
rradius 45.6209
rwrist -0.0710749
rhand -10.6409 -19.7903
rfingers 7.12502
rthumb 15.3664 -49.1993
lclavicle 4.73108e-014 7.95139e-015
lhumerus -42.8572 -8.57212 78.8044
lradius 69.8771
lwrist -0.238713
lhand -8.00352 4.50292
lfingers 7.12502
lthumb 17.9055 33.6987
rfemur -21.317 10.5586 17.392
rtibia 41.1286
rfoot -17.886 -1.7966
rtoes -7.74902
lfemur -15.0885 -3.23012 -9.22251
ltibia 66.4719
lfoot -11.2517 -30.9564
ltoes -10.1549
831
root 27.876 16.9791 1.43243 379.259 95.2028 381.159
lowerback 21.5 -2.33383 0.527196
upperback 7.00647 -2.09786 3.95523
thorax -4.22911 -0.815212 4.4525
lowerneck 1.04549 0.177887 10.7374
upperneck -8.12346 -0.336189 -15.7469
head -2.55853 0.0997954 -6.63033
rclavicle 1.74931e-014 -6.36111e-015
rhumerus -54.6982 6.19753 -72.3239
rradius 45.2657
rwrist 0.358377
rhand -10.6386 -19.6609
rfingers 7.12502
rthumb 15.3686 -49.0698
lclavicle 1.74931e-014 -6.36111e-015
lhumerus -43.5105 -8.37085 79.0474
lradius 68.9499
lwrist -0.624516
lhand -7.7609 4.99299
lfingers 7.12502
lthumb 18.1389 34.1672
rfemur -20.1201 10.501 18.7288
rtibia 41.7093
rfoot -18.7813 -2.14022
rtoes -7.70494
lfemur -15.9664 -2.75723 -7.99255
ltibia 68.6682
lfoot -11.9978 -31.1961
ltoes -10.8243
832
root 28.0642 16.9351 1.45822 385.786 95.6053 388.235
lowerback 21.4723 -2.31872 1.40917
upperback 7.18034 -1.84529 4.35255
thorax -4.06158 -0.677559 4.31106
lowerneck 1.14019 0.0428202 10.8274
upperneck -8.25084 -0.53956 -16.1062
head -2.63848 0.0183162 -6.76144
rclavicle 8.74653e-015 3.81667e-014
rhumerus -53.9771 5.89205 -71.9166
rradius 44.8326
rwrist 0.887005
rhand -10.6869 -19.5644
rfingers 7.12502
rthumb 15.322 -48.9768
lclavicle 8.74653e-015 3.81667e-014
lhumerus -44.1602 -8.10072 79.2574
lradius 67.9316
lwrist -0.983743
lhand -7.53823 5.52298
lfingers 7.12502
lthumb 18.3531 34.6772
rfemur -19.0004 10.4884 20.0199
rtibia 42.1856
rfoot -19.6708 -2.40862
rtoes -7.76787
lfemur -16.9089 -2.12201 -6.81863
ltibia 70.6348
lfoot -12.8255 -31.3644
ltoes -11.4958
